<svg xmlns="http://www.w3.org/2000/svg" width="682.666667" height="682.666667" version="1.0" viewBox="0 0 512 512"><path d="M290 81.5c-17.9 4-34.8 17.2-42.9 33.5-6.6 13.5-7.1 17.3-7.1 59.6v37l-2.6 5.2c-4.7 9.4-18.8 19.7-32.5 23.6-17.2 4.9-17.2 26.3 0 31.2 13.7 3.9 27.8 14.2 32.5 23.6l2.6 5.2v37c0 42.3.5 46.1 7.1 59.6 8.2 16.6 25.5 29.8 43.9 33.6 18.3 3.8 28.5-1.4 28.5-14.6 0-9.9-5-14.6-17.1-16.1-13.3-1.7-22.1-7.7-27.6-18.9-2.2-4.4-2.3-5.6-2.9-45.5-.6-45.4-.4-44.4-8-58.5-3.1-5.9-12.1-16.2-16.8-19.3l-2.5-1.6 3-2.2c9.2-7 16.9-17.8 21.6-30.6 2.1-5.5 2.2-8.1 2.7-46.8l.6-41 2.5-5c5.3-10.7 14.3-16.7 27.6-18.4 11.9-1.5 16.9-6.2 16.9-16.1 0-6.3-1.6-9.5-6.8-13.4-3.5-2.6-13.7-3.1-22.7-1.1"/></svg>