<?xml version="1.0" standalone="no"?>
<!DOCTYPE svg PUBLIC "-//W3C//DTD SVG 20010904//EN"
 "http://www.w3.org/TR/2001/REC-SVG-20010904/DTD/svg10.dtd">
<svg version="1.0" xmlns="http://www.w3.org/2000/svg"
 width="128.000000pt" height="128.000000pt" viewBox="0 0 128.000000 128.000000"
 preserveAspectRatio="xMidYMid meet">

<g transform="translate(0.000000,128.000000) scale(0.100000,-0.100000)"
fill="#000000" stroke="none">
<path d="M706 1154 c-9 -8 -16 -25 -16 -37 0 -48 11 -52 156 -57 l137 -5 -183
-188 c-187 -192 -202 -214 -170 -252 30 -36 55 -19 248 177 l190 192 -6 -136
c-4 -128 -4 -136 17 -157 26 -26 45 -27 71 -1 19 19 20 33 20 238 0 156 -3
221 -12 230 -9 9 -73 12 -224 12 -180 0 -215 -2 -228 -16z"/>
<path d="M127 1132 c-15 -17 -17 -67 -17 -508 0 -368 3 -493 12 -502 17 -17
1019 -17 1036 0 8 8 12 61 12 174 0 134 -3 165 -16 178 -18 19 -38 20 -65 6
-17 -10 -19 -22 -19 -135 l0 -125 -430 0 -430 0 0 410 0 410 135 0 c130 0 135
1 150 24 18 27 7 69 -20 80 -9 3 -88 6 -174 6 -140 0 -160 -2 -174 -18z"/>
</g>
</svg>
